<mxfile host="app.diagrams.net" modified="2023-12-13T15:41:13.383Z" agent="Mozilla/5.0 (Macintosh; Intel Mac OS X 10_15_7) AppleWebKit/605.1.15 (KHTML, like Gecko) Version/17.1.2 Safari/605.1.15" version="22.1.8" etag="COcNcLT3TI0xaZSJhiW3" type="github">
  <diagram name="Page-1" id="AyXOemvOtpqrMvb9KyJF">
    <mxGraphModel>
      <root>
        <mxCell id="0" />
        <mxCell id="1" parent="0" />
      </root>
    </mxGraphModel>
  </diagram>
</mxfile>
